<?xml version="1.0" encoding="utf-8"?>
<svg version="1.1" xmlns="http://www.w3.org/2000/svg" xmlns:xlink="http://www.w3.org/1999/xlink" viewBox="0 0 800 800"
	xml:space="preserve">
	<g id="circle">
		<circle cx="400" cy="400" r="396" fill="none" stroke="black" stroke-width="8" />
		<circle cx="400" cy="400" r="384" fill="none" stroke="black" stroke-width="4" />
		<circle cx="400" cy="400" r="300" fill="none" stroke="black" stroke-width="4" />
		<circle cx="400" cy="400" r="288" fill="none" stroke="black" stroke-width="8" />
	</g>
	<g id="text">
		<path id="xdu" d="M 93 309.72 A 320 320 0 0 1 707,309.72" stroke="none" fill="none" />
		<path id="isc" d="M 45 329.16 A 362 362 0 1 0 755,329.16" stroke="none" fill="none" />
		<text font-size="63px" font-family="Baskerville" color="black">
			<textPath xlink:href="#xdu" textLength="822.26">✽ XIDIAN UNIVERSITY ✽</textPath>
			<textPath xlink:href="#isc" textLength="1279.87">INFORMATION SECURITY CLUB</textPath>
		</text>
	</g>
	<g id="logo">
		<path d="M 403.3773 217.7567 c -18.7102 0 -37.05 0 -57.4275 0 c 2.964 3.705 4.2607 7.0395 6.2985 7.7805 c 10.374 3.3345 9.8183 11.3002 9.633 19.6365 c -0.3705 12.4117 0 24.8235 0 37.9763 c -19.4513 0 -37.791 0 -57.798 0 c 0 -6.2985 0 -12.2265 0 -18.1545 c 0 -18.525 0 -37.2353 0 -55.7602 c 0 -28.5285 24.0825 -50.7585 53.1668 -49.2765 C 385.0375 161.4407 410.602 188.1167 403.3773 217.7567 z M 330.3888 202.5662 c 19.4513 0 38.3468 0 57.798 0 c -3.705 -16.302 -17.784 -27.417 -33.5303 -27.6022 c -15.3757 0 -33.345 12.4117 -34.4565 26.8612 c -1.482 21.489 -0.3705 43.3485 -0.3705 65.208 c 9.633 0 17.9692 0 26.676 0 c 0 -13.1527 3.3345 -25.3792 -9.4477 -35.568 C 329.2772 225.1668 328.351 214.0517 330.3888 202.5662 z M 596.593 232.3915 c -11.856 17.9692 -28.7138 26.1202 -50.0175 25.935 c -18.525 0 -37.2353 0 -56.8717 0 c -0.3705 -8.7067 0.3705 -16.8577 0 -25.194 H 442.465 v 25.194 l -44.8305 -0.1852 v 15.1905 h 44.0895 v 23.1563 c -12.2265 0 -23.8972 0 -35.568 0 c -32.2335 0.1852 -64.467 0.1852 -96.5152 0.3705 c -41.496 0.1852 -71.136 29.64 -72.9885 71.3213 c -1.482 32.4187 9.4477 61.8735 19.266 91.6988 c 15.3757 46.4977 32.0482 93.5512 46.8682 140.049 c 3.1492 10.1887 2.0377 20.748 3.705 32.9745 h -28.158 v 15.3757 h 192.4747 c -10.9298 -10.7445 -24.6382 -23.8972 -35.3827 -35.0122 c -2.7787 -2.7787 -5.5575 -7.0395 -5.5575 -10.7445 c -0.3705 -34.6418 -0.1852 -69.2835 1.8525 -104.6662 c 2.223 5.928 4.6312 12.0412 6.8542 17.9692 c 4.446 12.0412 9.4477 23.8972 13.1527 36.1237 c 3.1492 10.1887 9.2625 16.4872 19.8217 19.266 c 5.5575 -8.5215 6.4837 -16.6725 2.5935 -26.8612 c -13.338 -34.2713 -25.7497 -68.7278 -38.7172 -103.9252 c 4.0755 -2.0377 7.5953 -3.8902 11.6707 -6.1132 c -1.8525 -5.0017 -3.5197 -9.633 -5.3723 -14.82 c -3.5197 0.5557 -6.8542 1.2967 -11.115 2.0377 V 351.6925 h 42.4222 v 100.5907 c 13.1527 -10.0035 24.2677 -17.9692 34.827 -26.676 c 5.3723 -4.446 9.2625 -4.8165 14.6347 -0.1852 c 10.374 8.7067 21.489 16.4872 33.9008 26.1202 v -177.099 c 25.935 2.223 37.6058 20.3775 50.5732 40.755 v -97.9972 C 602.8915 223.3142 599.7423 227.7602 596.593 232.3915 z M 303.157 312.2342 V 372.07 c -15.3757 -10.5593 -29.4547 -20.3775 -44.0895 -30.5662 C 268.7005 323.7197 283.7057 315.754 303.157 312.2342 z M 254.4363 354.8417 c 16.4872 11.115 31.863 21.3038 48.906 32.7892 c -15.9315 10.9298 -29.64 20.3775 -44.6452 30.5662 C 254.0657 396.3377 249.064 376.7013 254.4363 354.8417 z M 304.0833 551.2067 l -22.971 -63.9113 c -5.5575 -16.6725 -10.7445 -33.345 -16.6725 -49.8322 c -2.0377 -5.5575 -2.0377 -8.892 3.705 -12.4117 c 11.4855 -7.0395 22.6005 -14.82 35.9385 -23.712 V 551.2067 z M 457.4702 246.6557 h 15.1905 v 11.6707 h -15.1905 V 246.6557 z M 319.8295 313.1605 c 19.266 2.964 33.345 12.0412 43.1632 30.1958 c -14.6347 9.8183 -28.158 18.7102 -43.1632 28.899 V 313.1605 z M 368.7355 354.8417 c 5.3723 21.8595 0.3705 41.496 -4.2607 63.3555 c -15.0052 -10.1887 -28.7138 -19.6365 -44.6452 -30.5662 C 336.8725 376.1455 352.2482 365.9567 368.7355 354.8417 z M 352.2482 510.4517 c 0 0 13.8937 -39.4582 17.4135 -57.4275 H 401.71 l 1.482 3.3345 l 12.0412 -4.2607 v 57.798 L 352.2482 510.4517 z M 356.6943 526.0127 l -19.266 83.733 h -16.4872 l 27.6022 -83.733 H 356.6943 z M 320.0147 402.451 c 12.9675 9.0772 24.8235 17.043 36.309 25.5645 c 1.2967 0.9262 1.482 4.6312 0.9262 6.669 l -37.2353 116.337 V 402.451 z M 320.2 633.2725 v -15.0052 h 20.748 l 12.7822 15.0052 H 320.2 z M 386.3342 633.2725 h -9.633 l -25.5645 -25.5645 l 14.82 -62.985 l 20.1922 66.69 V 633.2725 H 386.3342 z M 375.2192 526.3832 h 39.6435 v 83.3625 h -16.4872 L 375.2192 526.3832 z M 434.314 633.2725 h -33.5303 v -15.0052 h 20.748 L 434.314 633.2725 z M 472.6608 335.5757 H 414.6775 v 60.3915 c -17.784 1.1115 -16.4872 0.5557 -8.3362 35.568 h -31.122 c 9.8183 -40.9402 20.1922 -82.4363 -17.043 -119.6715 h 99.294 V 273.8875 h 15.1905 L 472.6608 335.5757 L 472.6608 335.5757 z M 541.018 419.6792 c -8.892 -6.4837 -17.2282 -12.597 -25.5645 -18.7102 c -8.3362 6.1132 -16.4872 12.0412 -25.7497 18.8955 v -145.6065 h 51.3143 L 541.018 419.6792 L 541.018 419.6792 z" />
	</g>
</svg>
